<svg width="375" height="244" viewBox="0 0 375 244" fill="none" xmlns="http://www.w3.org/2000/svg">
<path d="M199.083 220.077L182.922 130.922" stroke="#64B8F1" stroke-width="1.74847" stroke-miterlimit="10" stroke-linecap="round"/>
<path d="M150.769 220.077L166.93 130.922" stroke="#64B8F1" stroke-width="1.74847" stroke-miterlimit="10" stroke-linecap="round"/>
<path d="M228.125 26.2917H121.728C120.989 26.2917 120.389 26.8912 120.389 27.6308V174.203C120.389 174.942 120.989 175.542 121.728 175.542H228.125C228.865 175.542 229.464 174.942 229.464 174.203V27.6308C229.464 26.8912 228.865 26.2917 228.125 26.2917Z" fill="white" stroke="#64B8F1" stroke-width="0.818783" stroke-miterlimit="10"/>
<path d="M206.398 53.7946H143.455" stroke="#6DCFFC" stroke-width="0.874233" stroke-miterlimit="10" stroke-linecap="round"/>
<path d="M206.398 67.9149H143.455" stroke="#D9F0FE" stroke-width="3.27513" stroke-miterlimit="10" stroke-linecap="round"/>
<path d="M206.398 97.7975L166.93 97.7975" stroke="#D9F0FE" stroke-width="1.47381" stroke-miterlimit="10" stroke-linecap="round"/>
<path d="M206.398 90.1313H174.927" stroke="#FE4443" stroke-width="1.47381" stroke-miterlimit="10" stroke-linecap="round"/>
<path d="M206.398 84.3624H159.012" stroke="#FE4443" stroke-width="1.47381" stroke-miterlimit="10" stroke-linecap="round"/>
<path d="M206.398 111.918H143.455" stroke="#D9F0FE" stroke-width="1.47381" stroke-miterlimit="10" stroke-linecap="round"/>
<path d="M197 131.128H185.007" stroke="#E6F8FF" stroke-width="6.11963" stroke-miterlimit="10" stroke-linecap="round"/>
<path d="M149.634 105.843C145.03 105.843 141.298 102.241 141.298 97.7976C141.298 93.3543 145.03 89.7523 149.634 89.7523C154.237 89.7523 157.969 93.3543 157.969 97.7976C157.969 102.241 154.237 105.843 149.634 105.843Z" fill="#D9F0FE"/>
<path d="M137.857 77.7231C138.531 78.7659 139.692 82.8938 139.382 83.518C139.173 84.1264 134.491 86.1169 131.098 84.6441C128.689 83.5898 129.374 81.4683 129.754 80.6413C130.133 79.8143 130.701 79.1084 132.072 77.4529C133.81 75.5472 138.524 75.2974 138.524 75.2974C138.524 75.2974 137.198 76.7738 137.857 77.7231Z" fill="#FFB382"/>
<path d="M137.855 77.7296C138.531 78.7745 139.225 83.1777 138.9 83.7095C138.83 83.9128 138.461 84.1635 137.748 84.1808C135.61 84.2327 135.643 82.4988 133.22 82.6919C135.816 80.3585 134.324 78.6751 135.174 77.5797C135.698 77.0161 135.185 77.0017 135.968 76.7812C136.824 77.0291 137.596 77.3866 137.855 77.7296Z" fill="#FF9B71"/>
<path d="M140.852 69.8982L134.114 81.8251L136.294 82.9378L143.032 71.0109L140.852 69.8982Z" fill="#124296"/>
<path d="M143.422 67.144L142.444 67.4885L144.332 68.4513L144.087 67.4292L143.422 67.144Z" fill="#64B8F1"/>
<path d="M134.406 81.9192L134.144 82.3824L135.965 83.3108L136.227 82.8475L134.406 81.9192Z" fill="#F4F4F4"/>
<path d="M143.034 71.0028L143.191 70.7242L140.985 69.5979L140.828 69.8765L143.034 71.0028Z" fill="#64B8F1"/>
<path d="M142.465 67.5233L141.213 69.733L143.025 70.6555L144.277 68.4457L142.465 67.5233Z" fill="#64B8F1"/>
<path d="M143.804 66.597L143.491 67.1503L144.159 67.4906L144.473 66.9374L143.804 66.597Z" fill="#64B8F1"/>
<path d="M143.942 66.7078L144.277 66.9024C144.277 66.9024 144.704 66.3701 144.481 66.2748C144.257 66.0761 143.942 66.7078 143.942 66.7078Z" fill="#FE4443"/>
<path d="M139.115 84.0838C138.421 84.1942 137.102 84.2128 136.462 84.0279C136.135 83.8888 135.764 83.4703 135.72 83.1908C135.676 82.9113 135.687 82.3365 136.267 82.1488C137.245 81.8979 138.564 81.8793 139.531 82.2033C140.185 82.4813 139.894 83.8645 139.115 84.0838Z" fill="#FFB382"/>
<path d="M139.781 82.5363C139.751 82.3515 139.638 82.2747 139.425 82.2135C138.461 81.8921 137.144 81.9106 136.169 82.1594C136.169 82.1594 136.169 82.1594 136.07 82.1751C137.346 82.542 138.662 82.5235 139.781 82.5363Z" fill="#FF9B71"/>
<path d="M135.393 72.1791C136.674 72.3493 138.183 72.1471 139.097 71.9105C139.806 71.7586 139.759 73.6838 138.243 73.9821C137.13 74.2072 136.231 74.2517 136.231 74.2517L135.144 75.4423C135.144 75.4423 135.369 76.4192 135.174 77.6612C135.01 78.5193 133.457 79.2975 133.457 79.2975L130.362 79.4083C130.362 79.4083 129.414 78.7753 129.678 77.9229C130.577 75.2755 132.174 73.9216 133.216 73.3068C133.855 72.7652 134.508 72.0317 135.393 72.1791Z" fill="#FFB382"/>
<path d="M140.155 78.227L140.041 78.1513C139.419 78.0615 138.43 78.2158 136.834 78.3716C136.538 78.4179 136.142 78.4796 135.761 78.6326C136.962 78.5386 138.588 78.5652 140.155 78.227Z" fill="#FF9B71"/>
<path d="M139.606 80.4234C138.756 80.179 137.212 80.044 136.322 80.1847C136.124 80.2159 136.025 80.2316 135.841 80.3552C136.153 80.4006 136.578 80.5228 137.414 80.6749C138.334 80.7189 139.24 80.6706 139.735 80.5925C139.705 80.4078 139.705 80.4078 139.606 80.4234Z" fill="#FF9B71"/>
<path d="M140.404 81.3771C140.265 81.7811 139.927 82.2165 139.416 82.2022C138.523 82.344 136.764 82.1463 136.066 81.5891C135.838 81.4344 135.566 81.0004 135.636 80.7984C135.691 80.5034 136.143 80.1453 136.653 80.1596C137.561 80.1109 139.093 80.1539 139.945 80.4003C140.257 80.4461 140.544 80.9732 140.404 81.3771Z" fill="#FFB382"/>
<path d="M140.796 78.1923C141.189 78.3898 141.272 79.0694 141.165 79.3595C141.058 79.6495 140.749 80.0348 140.246 80.2243C139.344 80.4104 137.157 80.1971 136.373 79.7052C135.982 79.4108 135.797 78.8272 136.009 78.3441C136.22 77.861 137.117 77.8689 137.615 77.8733C139.109 77.8865 140.205 77.8961 140.796 78.1923Z" fill="#FFB382"/>
<path d="M141.077 75.9969C141.47 76.1941 141.66 76.5832 141.548 77.0665C141.54 77.357 141.326 77.9362 140.926 78.0295C140.024 78.2153 138.834 78.0111 137.644 77.8069C137.148 77.7057 136.663 77.2172 136.772 76.8307C136.896 75.8633 137.795 75.7743 138.293 75.7787C139.192 75.6898 140.389 75.6035 141.077 75.9969Z" fill="#FFB382"/>
<path d="M132.652 83.6188L126.844 86.0644L122.779 81.5564L129.985 78.0287L132.652 83.6188Z" fill="#FFB382"/>
<path d="M123.603 79.2344C125.77 78.8987 127.849 80.2293 128.445 82.3389C129.122 84.7369 127.648 87.2065 125.211 87.7283C116.596 89.573 98.0846 93.4738 92.5139 94.1458C86.5618 94.8792 75.0545 82.6635 71.2653 78.4315C70.4583 77.5302 70.0925 76.3328 70.3333 75.1472C70.8816 72.4473 72.2403 67.7968 75.0712 68.007C78.1313 68.3024 94.35 82.184 95.574 82.7747C96.5291 83.3509 115.37 80.5105 123.603 79.2344Z" fill="#124296"/>
<path d="M49.7414 217.16C49.7414 217.16 49.2823 222.625 50.2004 225.283C51.1184 227.941 57.8507 232.076 57.8507 232.076C57.8507 232.076 51.5774 233.11 49.2823 231.19C46.9872 229.27 41.632 219.819 42.091 218.637C42.5501 217.456 44.3861 213.764 44.3861 213.764L49.7414 217.16Z" fill="#FFBE88"/>
<path d="M86.8525 217.308C86.8525 217.308 86.3934 222.772 87.3115 225.43C88.2295 228.089 94.9618 232.224 94.9618 232.224C94.9618 232.224 88.6885 233.257 86.3934 231.338C84.0983 229.418 78.7431 219.966 79.2021 218.785C79.6612 217.604 81.4972 213.912 81.4972 213.912L86.8525 217.308Z" fill="#FFBE88"/>
<path d="M43.4695 217.013C43.4695 217.013 38.2672 218.49 39.3383 222.92C40.5623 227.35 40.1033 232.962 40.1033 232.962H41.6334C41.6334 232.962 42.0924 226.76 43.1635 226.907C44.0815 227.203 46.0706 233.11 48.2127 233.11C50.3548 233.11 60.4532 233.553 60.4532 233.553C60.4532 233.553 61.8303 232.371 60.4532 231.633C59.2292 230.895 50.8138 230.895 50.0488 229.122C49.2837 227.35 43.4695 217.013 43.4695 217.013Z" fill="#FE4443"/>
<path d="M80.8848 217.013C80.8848 217.013 75.6826 218.49 76.7536 222.92C77.9777 227.35 77.5187 232.962 77.5187 232.962H79.0487C79.0487 232.962 79.5077 226.76 80.5788 226.907C81.4968 227.203 83.4859 233.11 85.628 233.11C87.7701 233.11 97.8685 233.553 97.8685 233.553C97.8685 233.553 99.2456 232.371 97.8685 231.633C96.6445 230.895 88.2291 230.895 87.4641 229.122C86.546 227.35 80.8848 217.013 80.8848 217.013Z" fill="#FE4443"/>
<path d="M48.3657 162.964C46.2236 176.845 42.8575 217.161 42.8575 217.161L49.2838 218.785C49.2838 218.785 61.3712 170.347 62.5953 164.44" fill="#FFBE88"/>
<path d="M70.3282 164.735C70.4812 166.212 79.3556 218.047 79.3556 218.047L86.6998 218.194C86.6998 218.194 84.4048 160.748 84.2517 163.702" fill="#FFBE88"/>
<path d="M87.4937 167.478C88.9735 167.432 90.1069 166.189 90.0003 164.712C89.3368 155.528 86.919 125.263 81.46 110.026C81.0142 108.781 79.6774 108.138 78.3838 108.41C73.8891 109.354 63.4933 110.943 55.0973 107.732C54.2182 107.396 53.2234 107.48 52.5346 108.122C50.4667 110.046 46.258 114.827 45.1555 122.648C44.6629 125.896 44.6629 129.884 45.1555 134.609C45.7461 139.92 44.6111 155.735 43.3018 165.742C43.0886 167.372 44.3757 168.823 46.0181 168.772L87.4937 167.478Z" fill="#4F81D6"/>
<path d="M72.6225 50.1381C71.5515 49.8427 67.1143 39.9484 65.1252 38.0286C63.9012 44.674 57.4749 70.8129 57.4749 70.8129C62.3711 76.2769 76.6007 73.7664 76.6007 73.7664C75.0706 70.0745 72.1635 52.3532 72.6225 50.1381Z" fill="#F1AD75"/>
<path d="M70.8299 26.6406C70.8299 26.6406 79.8097 28.9427 81.4934 31.5157C83.1771 34.0887 82.8964 40.7244 83.8786 42.6203C84.4398 43.7036 84.8608 44.5162 85.1414 45.1933C85.422 45.7349 84.7204 46.0058 83.8786 46.2766C83.4577 46.412 83.1771 46.6829 83.0368 47.0892C82.4755 48.7142 80.7918 52.7768 79.2484 53.3185C77.2841 53.9956 68.1641 53.4539 65.6385 45.5995C63.113 37.6097 65.0773 24.7447 70.8299 26.6406Z" fill="#FFBE88"/>
<path d="M71.0718 72.4816C70.9248 70.6263 71.9932 68.2283 73.0625 66.705C74.217 65.0602 76.4465 65.0568 77.1639 66.9339C78.963 71.6419 81.7991 79.3841 82.1099 82.1839C82.4917 85.7459 84.6729 106.471 85.3961 113.344C85.539 114.703 84.8724 115.999 83.6188 116.54C82.4144 117.06 80.6909 117.71 78.5089 118.289C76.5211 118.817 74.6256 117.335 74.4632 115.285L71.0718 72.4816Z" fill="#124296"/>
<path d="M61.0816 116.257C60.8637 118.161 59.1514 119.546 57.2626 119.222C54.9229 118.821 52.4985 118.245 49.9892 117.473C48.2423 116.936 47.2894 115.093 47.743 113.322C49.4139 106.8 52.9806 91.7533 52.2728 84.6943C51.4885 76.9981 52.3794 67.0383 57.7126 60.2482C59.1147 58.463 61.7901 59.0587 62.9618 61.0029C63.7352 62.2862 64.6813 63.7138 65.7332 65.0069C66.3863 65.8096 66.7405 66.8287 66.6228 67.8568L61.0816 116.257Z" fill="#124296"/>
<path d="M75.0712 110.981C71.246 111.719 66.3498 112.015 60.9945 111.572L63.9016 70.5173C65.1257 71.8464 70.4809 70.8127 71.858 71.108" fill="#DDEBF2"/>
<path d="M53.191 117.627C53.191 107.88 53.803 100.496 54.262 90.897C54.721 83.0701 56.2511 78.4921 52.4259 73.6188C51.8139 77.4584 48.1417 81.4457 48.4477 84.8422C49.3658 93.8505 46.7647 116.593 46.7647 116.593C49.9778 117.627 50.2838 117.036 53.191 117.627Z" fill="#082B6B"/>
<path d="M49.3659 128.259C49.6719 129.588 50.131 130.917 51.049 131.951C51.508 132.394 51.967 132.837 52.273 133.428C52.5791 134.019 53.0381 134.609 53.4971 135.2C53.9561 135.791 54.4152 136.382 54.4152 137.12C54.4152 138.006 53.3441 137.415 52.7321 136.972C51.967 136.529 51.202 134.019 50.284 134.019C49.3659 134.019 50.59 136.972 50.896 137.563C51.508 138.892 52.5791 139.04 53.6501 139.926C54.2622 140.369 54.4152 140.812 53.4971 141.107C52.8851 141.255 52.12 140.812 51.661 140.516C50.59 139.778 49.5189 138.744 48.9069 137.563C49.2129 138.449 50.437 139.778 51.202 140.516C51.661 140.96 54.4152 142.584 53.6501 143.47C52.2731 145.242 47.6828 139.926 47.3768 138.744C47.8358 139.926 48.6009 140.96 49.5189 141.846C49.978 142.436 51.202 143.765 49.8249 143.913C47.8358 144.061 46.6118 140.369 45.6937 138.744C45.8468 139.926 46.4588 140.812 46.9178 141.993C47.5298 143.47 46.3058 143.322 45.3877 141.993C44.9287 141.403 44.4697 140.221 44.3167 139.926C43.0926 136.972 43.0926 135.2 43.7046 132.247C43.8577 131.213 43.0926 128.998 43.8576 128.407C45.0817 127.373 47.6828 128.112 49.3659 128.259Z" fill="#FFBE88"/>
<path d="M50.348 125.241C50.3992 126.914 49.2596 128.38 47.6278 128.752L45.5639 129.223C43.63 129.664 41.7222 128.421 41.3825 126.466C40.1491 119.373 37.613 103.602 38.197 96.9516C38.962 88.2387 51.0495 63.1336 54.4156 60.9184C58.5468 58.1126 67.4212 67.4162 59.1588 76.2768C51.4684 84.5241 50.1407 96.2257 49.8704 98.4017C49.8433 98.62 49.8009 98.8145 49.7886 99.0342C49.6456 101.581 50.1387 118.413 50.348 125.241Z" fill="#124296"/>
<path d="M43.4986 69.8308C33.283 80.8298 49.213 81.8553 62.28 81.9405C64.788 81.9569 66.4611 79.3724 65.6022 77.016C61.3233 65.2758 66.7531 69.3681 67.5733 59.737C68.0323 55.3067 67.2673 52.7962 65.8902 48.6613C65.4312 47.0368 64.9722 37.2901 68.7973 42.0158C69.1033 42.4588 70.6334 45.7077 71.0924 43.9356C71.2454 43.4926 70.4804 42.4588 70.4804 41.8681C70.4804 40.982 70.6334 40.3913 71.2454 39.8006C72.3165 38.7669 73.6935 38.3239 74.7646 37.2901C76.1416 36.1087 76.2946 34.3366 78.1307 33.7459C79.0488 33.4505 80.1198 33.4505 81.0378 33.7459C81.4969 33.8936 83.3329 35.2226 83.6389 35.075C86.8521 33.8936 89.2294 28.86 83.4859 27.5434C78.1307 17.8464 70.0214 22.6701 70.0214 22.6701C64.2071 22.6701 56.3926 23.5564 52.8734 27.5437C46.3054 34.9854 51.0486 40.2437 51.0486 40.2437C49.6715 43.3449 37.4202 46.0548 43.4986 69.8308Z" fill="#FFCD5C"/>
<path d="M322.779 224.227C322.809 225.213 322.018 226.029 321.031 226.029H313.024C312.147 226.029 311.405 225.378 311.291 224.509L300.368 141.681C300.327 141.369 300.203 141.074 300.008 140.828L299.242 139.855C298.244 138.588 296.208 139.234 296.123 140.846L291.728 224.372C291.679 225.301 290.912 226.029 289.982 226.029H281.693C280.742 226.029 279.966 225.269 279.945 224.318L277.658 119.665C277.637 118.685 278.426 117.878 279.406 117.878H317.83C318.775 117.878 319.549 118.629 319.578 119.573L322.779 224.227Z" fill="#4F81D6"/>
<path fill-rule="evenodd" clip-rule="evenodd" d="M321.359 139.153L318.917 138.093C318.917 138.093 316.554 132.201 317.893 131.052C319.233 129.904 319.667 128.872 319.667 128.872L321.359 127.01C319.779 119.333 321.359 93.8225 325.712 96.647C327.751 95.576 331.368 94.9518 333.323 97.623C337.683 100.884 328.011 121.17 327.935 129.074C327.872 135.543 325.691 136.594 321.359 139.153Z" fill="#FFBE88"/>
<path fill-rule="evenodd" clip-rule="evenodd" d="M322.97 99.0011C323.758 100.061 330.976 100.364 335.072 99.0011C335.072 99.0011 339.472 95.9946 336.952 93.1167C336.952 60.6351 320.827 55.9276 320.512 56.5335C318.149 61.6835 320.834 72.2858 319.259 72.8916C317.526 73.4975 318.086 95.5173 322.97 99.0011Z" fill="#114673"/>
<path fill-rule="evenodd" clip-rule="evenodd" d="M321.304 56.533C325.558 58.1992 320.8 111.82 320.327 118.939C319.697 127.27 283.902 124.846 275.868 122.12C275.238 121.817 276.688 106.973 275.742 99.2478C274.009 82.7375 277.665 58.8051 277.665 58.8051C277.665 58.8051 294.522 52.8977 301.139 52.8977C305.55 52.8977 315.475 54.2609 321.304 56.533Z" fill="#114673"/>
<path fill-rule="evenodd" clip-rule="evenodd" d="M307.984 38.3558C307.511 42.1426 306.723 45.172 306.881 51.0794C308.141 53.9573 309.874 55.1691 312.237 55.6235C312.237 55.6235 301.209 61.5309 296.798 61.5309C290.496 61.5309 287.345 56.9868 287.345 56.9868C289.709 56.3809 292.702 53.8059 293.647 51.0794C293.647 51.0794 295.695 42.4455 296.01 41.5367C296.168 40.7794 307.984 38.3558 307.984 38.3558Z" fill="#FFA98A"/>
<path fill-rule="evenodd" clip-rule="evenodd" d="M312.55 20.6344L307.982 46.5359C300.419 50.1712 295.221 52.8977 289.549 49.1109C289.549 49.1109 289.392 44.5668 289.234 40.0226C289.549 39.1138 288.919 28.8138 291.597 21.8461C291.755 20.18 312.55 20.6344 312.55 20.6344Z" fill="#FFBE88"/>
<path fill-rule="evenodd" clip-rule="evenodd" d="M311.134 32.7515C311.764 32.903 310.819 37.9015 310.819 37.9015C310.819 37.9015 317.751 25.4809 317.435 23.2088C316.963 19.1191 313.024 18.0588 313.024 18.0588C313.024 18.0588 312.079 15.4838 309.716 14.8779C305.62 13.8176 301.524 14.7265 297.428 12.9088C296.482 12.4544 295.695 12 294.749 12C293.174 12 289.393 14.2721 288.92 15.7868C287.975 18.8162 290.496 21.5427 293.962 22.7544C297.428 23.9662 310.661 20.7853 310.661 23.2088L309.401 35.6294C309.401 35.6294 310.504 32.6 311.134 32.7515Z" fill="#062B6E"/>
<path fill-rule="evenodd" clip-rule="evenodd" d="M293.649 23.6635C298.69 25.4811 303.259 22.1487 308.3 24.2693C312.081 25.784 307.828 40.6282 307.828 40.6282C307.828 40.6282 313.499 26.3899 310.979 21.5429C308.773 17.3017 306.252 17.3017 306.252 17.3017C306.567 18.059 306.725 18.8164 306.41 19.5737L300.423 17.3017C301.211 18.2105 301.369 19.2708 300.896 20.1796L296.17 17.1502C296.642 18.5134 296.642 19.5737 295.855 20.1796C295.855 20.1796 294.752 20.3311 292.546 17.9076C290.183 15.3326 291.286 13.6664 291.286 13.6664C291.286 13.6664 288.135 16.6958 287.662 17.3017C287.662 17.1502 288.608 21.8458 293.649 23.6635Z" fill="#284E99"/>
<path d="M311.607 38.5076C313.183 38.6591 314.916 36.69 315.546 35.4782C316.649 33.3576 316.491 30.4797 313.813 30.3282C312.08 30.1767 310.032 31.9944 309.559 33.3576C308.929 35.9326 309.717 38.3562 311.607 38.5076Z" fill="#FFBE88"/>
<path fill-rule="evenodd" clip-rule="evenodd" d="M311.448 26.5413L311.764 30.0252C311.764 30.0252 309.715 31.3884 309.715 33.9634C309.715 36.6899 311.133 38.0531 311.133 38.0531L309.243 46.5355C304.359 49.4134 298.688 55.1693 287.66 50.6252L289.235 41.9914C289.392 41.0825 289.077 40.1737 289.235 39.7193L290.023 38.8105L293.804 39.1134L298.057 38.659C298.057 38.659 301.681 40.1737 302.153 40.6281C302.626 41.0825 305.777 41.0825 305.777 41.0825C308.14 36.9928 311.291 25.784 307.983 22.1487L311.133 21.9972L311.448 26.5413Z" fill="#062B6E"/>
<path fill-rule="evenodd" clip-rule="evenodd" d="M293.805 54.8663C296.798 55.4722 302.155 53.9575 306.881 50.6251C309.402 49.5648 310.505 46.8384 309.717 44.4148L309.559 43.8089L307.826 42.5972L307.669 45.6266C306.724 44.5663 305.778 44.1119 304.833 43.9604C305.621 45.0207 305.463 45.7781 304.833 46.5354L301.682 44.2633C302.47 45.7781 302.47 47.1413 301.84 48.3531L299.162 46.081L299.319 49.5648L297.429 48.3531V50.6251C296.168 49.5648 295.38 48.5045 294.908 47.2928C294.75 48.8075 294.75 49.8678 293.017 50.4737C293.175 49.5648 292.702 48.2016 291.915 48.2016C292.23 49.2619 291.757 50.0192 291.127 50.6251L289.866 46.8384C290.339 47.1413 289.079 49.1104 287.661 50.6251C286.558 51.8369 286.401 52.5943 287.818 53.3516C289.079 54.109 291.127 54.8663 293.805 54.8663Z" fill="#284E99"/>
<path fill-rule="evenodd" clip-rule="evenodd" d="M291.127 45.9298C291.442 46.3842 294.908 45.9298 294.908 45.9298C294.908 45.9298 297.743 46.0812 299.004 44.8695C300.264 43.5062 298.689 40.4768 298.689 40.4768C298.689 40.4768 291.599 40.7797 291.284 40.7797C290.969 40.9312 290.181 44.718 291.127 45.9298Z" fill="#FFBE88"/>
<path d="M250.097 60.3198C249.309 59.5625 248.049 58.1992 247.734 57.7448C247.261 57.1389 246.631 56.0786 246.316 55.1698C246.001 54.261 245.686 53.5036 245.686 53.2007C245.371 51.686 243.795 51.2316 243.795 52.7463C243.795 53.3522 243.953 54.7154 244.268 55.4728C244.583 56.3816 245.056 57.5934 245.686 58.8051C246.001 59.411 247.261 61.2287 248.049 61.986C248.049 61.986 250.097 61.0772 250.097 60.3198Z" fill="#FFBE88"/>
<path d="M251.515 59.2594C251.042 58.1991 250.254 56.23 250.097 55.7756C249.939 55.0182 249.624 53.655 249.624 52.7462C249.624 51.6859 249.624 50.7771 249.782 50.3226C250.097 48.8079 248.522 47.7476 248.049 49.2624C247.734 49.8682 247.576 51.2315 247.419 52.2918C247.419 53.2006 247.419 54.7153 247.576 56.23C247.734 56.9874 248.206 59.2594 248.679 60.3197C248.679 60.3197 251.357 60.0168 251.515 59.2594Z" fill="#FFBE88"/>
<path d="M253.091 59.108C253.091 57.8962 253.091 55.9271 253.249 55.3212C253.406 54.5638 253.722 53.3521 254.037 52.2918C254.509 51.383 254.824 50.4741 255.139 50.1712C255.77 49.1109 254.824 47.5962 253.722 48.6565C253.249 49.1109 252.461 50.3227 251.989 51.2315C251.516 52.1403 251.043 53.5035 250.571 54.8668C250.413 55.6241 249.941 57.8962 249.941 59.108C250.098 59.108 252.461 59.8653 253.091 59.108Z" fill="#FFBE88"/>
<path d="M254.351 60.9255C254.666 59.7138 255.139 57.8961 255.454 57.4417C256.084 56.8358 257.187 56.3814 257.187 56.3814C257.187 56.3814 258.447 57.1387 258.762 57.4417C259.707 58.8049 261.125 58.199 260.495 56.6843C260.18 56.0784 258.92 54.5637 257.817 54.4122C256.241 54.1093 254.508 54.2608 253.721 55.4726C253.248 56.0784 251.83 58.8049 251.515 59.8652C251.515 60.0167 253.563 61.5314 254.351 60.9255Z" fill="#FFBE88"/>
<path d="M257.818 61.2281C258.921 59.4104 258.921 57.5928 260.497 57.8957C261.127 58.0472 260.654 61.3795 260.339 61.9854C258.291 65.3178 256.243 67.7413 253.092 68.8016C250.256 69.8619 255.14 60.7737 255.14 60.7737C255.14 60.7737 256.085 62.2884 257.818 61.2281Z" fill="#FFBE88"/>
<path d="M255.613 66.0755C255.456 63.349 254.983 60.774 254.826 59.1078C254.353 58.0475 251.045 57.2901 248.996 58.1989C247.106 58.9563 246.003 58.3504 246.476 61.2284C246.948 63.9549 247.106 66.3784 248.681 68.1961C249.627 69.1049 255.928 70.0137 255.613 66.0755Z" fill="#FFBE88"/>
<path d="M259.55 79.8598L250.413 83.4951L248.838 66.9847H255.139L259.55 79.8598Z" fill="#FFBE88"/>
<path d="M287.347 79.8346C287.403 80.332 287.244 80.8301 286.903 81.1964C281.715 86.7696 274.183 92.4984 264.591 98.7932C263.9 99.1918 260.906 99.94 259.011 99.7089C258.541 99.6516 258.18 99.3089 257.965 98.887C256.509 96.029 253.261 90.9606 251.343 88.2418C251.247 88.1059 251.172 87.9584 251.115 87.8023C250.235 85.4021 249.925 86.8041 249.467 86.0697C248.621 84.3086 249.666 83.2744 249.896 83.0756C249.925 83.0509 249.955 83.0299 249.987 83.0093L258.848 77.2378C259.378 76.8924 260.054 76.8605 260.614 77.1544L260.708 77.2036C261.171 77.4465 261.502 77.884 261.608 78.396L261.805 79.3436C261.872 79.6641 262.1 79.927 262.408 80.038C262.847 80.1964 263.333 80.0163 263.556 79.6062C265.056 76.8528 270.698 66.6231 275.9 58.875C276.436 58.0758 277.602 57.7362 278.558 57.8486C279.986 58.0165 281.951 58.0553 283.317 58.0591C284.222 58.0615 284.991 58.7365 285.091 59.6358L287.347 79.8346Z" fill="#114673"/>
<path d="M280.8 224.615C280.987 224.548 281.185 224.515 281.384 224.515H290.52C291.486 224.515 292.269 225.297 292.269 226.263V230.945C292.269 231.911 291.486 232.694 290.52 232.694H269.74C268.361 232.694 267.727 229.686 268.997 228.824C269.07 228.775 269.151 228.741 269.234 228.712L280.8 224.615Z" fill="#124296"/>
<path d="M322.323 224.614C322.136 224.548 321.938 224.514 321.739 224.514H312.603C311.637 224.514 310.854 225.297 310.854 226.262V230.945C310.854 231.91 311.637 232.693 312.603 232.693H333.383C334.762 232.693 335.396 229.685 334.126 228.823C334.053 228.774 333.972 228.74 333.889 228.711L322.323 224.614Z" fill="#124296"/>
</svg>
